/* XPM */
static char *_9e1bdb0672649aa8ca564dd657e6ff23w7rPG29ozYouuWO[] = {
/* columns rows colors chars-per-pixel */
"100 100 2 1 ",
"  c None",
". c white",
/* pixels */
"                                     ...                                                            ",
"                                     .........                                                      ",
"                                     ..............                                                 ",
"                                     ....................                                           ",
"                    ..........................................                                      ",
"                    ................................................                                ",
"                    ......................................................                          ",
"                    ...........................................................                     ",
"                    ............................................................                    ",
"                    ............................................................                    ",
"                    ............................................................                    ",
"                    .......          ...........................................                    ",
"                    .......          ...........................................                    ",
"                    .......          ...........................................                    ",
"                    .......          ...........................................                    ",
"                    .......          ...........................................                    ",
"                    .......          ...........................................                    ",
"                    .......          ...........................................                    ",
"                    .......          ...........................................                    ",
"                    .......          ...........................................                    ",
"                    .......          ...........................................                    ",
"                    .......          ...........................................                    ",
"                    .......          ...........................................                    ",
"                    .......          ...........................................                    ",
"                    .......          ...........................................                    ",
"                    .......          ...........................................                    ",
"                    .......          ...........................................                    ",
"                    .......          ...........................................                    ",
"                    .......          ...........................................                    ",
"                    .......          ...........................................                    ",
"                    .......          ...........................................                    ",
"                    .......          ...........................................                    ",
"                    .......          ...........................................                    ",
"                    .......          ...........................................                    ",
"                    .......          ...........................................                    ",
"                    .......          ...........................................                    ",
"                    .......          ...........................................                    ",
"                    .......          ...........................................                    ",
"                    .......          ...........................................                    ",
"                    .......          ...........................................                    ",
"                    .......          ...........................................                    ",
"                    .......          ...........................................                    ",
"                    .......          ...........................................                    ",
"                    .......          ...........................................                    ",
"                    .......          ...........................................                    ",
"                    .......          ...........................................                    ",
"                    .......          ...........................................                    ",
"                    .......          .......   .................................                    ",
"                    .......          ......     ................................                    ",
"                    .......          ......     ................................                    ",
"                    .......          ......     ................................                    ",
"                    .......          ......     ................................                    ",
"                    .......          ......    .................................                    ",
"                    .......          ...........................................                    ",
"                    .......          ...........................................                    ",
"                    .......          ...........................................                    ",
"                    .......          ...........................................                    ",
"                    .......          ...........................................                    ",
"                    .......          ...........................................                    ",
"                    .......          ...........................................                    ",
"                    .......          ...........................................                    ",
"                    .......          ...........................................                    ",
"                    .......          ...........................................                    ",
"                    .......          ...........................................                    ",
"                    .......          ...........................................                    ",
"                    .......          ...........................................                    ",
"                    .......          ...........................................                    ",
"                    .......          ...........................................                    ",
"                    .......          ...........................................                    ",
"                    .......          ...........................................                    ",
"                    .......          ...........................................                    ",
"                    .......          ...........................................                    ",
"                    .......          ...........................................                    ",
"                    .......          ...........................................                    ",
"                    .......          ...........................................                    ",
"                    .......          ...........................................                    ",
"                    .......          ...........................................                    ",
"                    .......          ...........................................                    ",
"                    .......          ...........................................                    ",
"                    .......          ...........................................                    ",
"                    .......          ...........................................                    ",
"                    .......          ...........................................                    ",
"                    .......          ...........................................                    ",
"                    .......          ...........................................                    ",
"                    .......          ...........................................                    ",
"                    .......          ...........................................                    ",
"                    .......          ...........................................                    ",
"                    .......          ...........................................                    ",
"                    .......          ...........................................                    ",
"                    .......          ...........................................                    ",
"                    .......          ...........................................                    ",
"                    .......          ...........................................                    ",
"                                     ..........................................                     ",
"                                     .....................................                          ",
"                                     ...............................                                ",
"                                     ..........................                                     ",
"                                     ....................                                           ",
"                                     ..............                                                 ",
"                                     .........                                                      ",
"                                     ...                                                            "
};
