/* XPM */
static char * wall_xpm[] = {
"80 80 334 2",
"  	c #477CA2",
". 	c #467CA1",
"+ 	c #467DA1",
"@ 	c #447A9F",
"# 	c #44799D",
"$ 	c #44799E",
"% 	c #42789C",
"& 	c #42769A",
"* 	c #42769B",
"= 	c #477EA3",
"- 	c #497FA3",
"; 	c #4A80A3",
"> 	c #4B80A3",
", 	c #4A7FA3",
"' 	c #497EA3",
") 	c #497EA4",
"! 	c #4A7FA4",
"~ 	c #467DA2",
"{ 	c #457CA0",
"] 	c #447A9E",
"^ 	c #43799D",
"/ 	c #477FA3",
"( 	c #4A7EA4",
"_ 	c #487EA3",
": 	c #487EA2",
"< 	c #457B9F",
"[ 	c #447B9F",
"} 	c #487FA4",
"| 	c #4A81A5",
"1 	c #4C82A5",
"2 	c #4D83A6",
"3 	c #4A80A4",
"4 	c #497FA4",
"5 	c #487FA3",
"6 	c #477DA2",
"7 	c #457BA0",
"8 	c #447B9E",
"9 	c #4980A5",
"0 	c #4C81A5",
"a 	c #4980A4",
"b 	c #477EA2",
"c 	c #4880A5",
"d 	c #4A82A7",
"e 	c #4D84A7",
"f 	c #4E85A8",
"g 	c #4C82A6",
"h 	c #4B81A6",
"i 	c #457C9F",
"j 	c #4981A6",
"k 	c #4B82A7",
"l 	c #4D84A8",
"m 	c #4C83A7",
"n 	c #4A80A5",
"o 	c #4B82A6",
"p 	c #4981A5",
"q 	c #467EA1",
"r 	c #447C9F",
"s 	c #467BA0",
"t 	c #4982A6",
"u 	c #4B83A8",
"v 	c #4D85A9",
"w 	c #4E86AA",
"x 	c #4D86AA",
"y 	c #4C82A7",
"z 	c #457DA0",
"A 	c #457A9F",
"B 	c #4982A7",
"C 	c #4B84A8",
"D 	c #4880A4",
"E 	c #467EA2",
"F 	c #477DA1",
"G 	c #467CA0",
"H 	c #467B9F",
"I 	c #4C85AA",
"J 	c #4D86AB",
"K 	c #4E87AB",
"L 	c #4E86AB",
"M 	c #4E85AA",
"N 	c #4E85A9",
"O 	c #4D83A8",
"P 	c #4981A4",
"Q 	c #477EA1",
"R 	c #4C84A9",
"S 	c #4E84A9",
"T 	c #4D83A7",
"U 	c #4C83A8",
"V 	c #4E88AC",
"W 	c #4F89AD",
"X 	c #4E87AC",
"Y 	c #4F87AB",
"Z 	c #4F86AA",
"` 	c #4B83A7",
" .	c #4881A5",
"..	c #4D87AB",
"+.	c #4F88AD",
"@.	c #4A84A9",
"#.	c #4A83A9",
"$.	c #4983A8",
"%.	c #4881A6",
"&.	c #4D89AC",
"*.	c #4F8AAE",
"=.	c #508AAE",
"-.	c #4F88AC",
";.	c #4D84A9",
">.	c #4B84A9",
",.	c #4882A7",
"'.	c #4781A6",
").	c #4E8AAD",
"!.	c #4F8AAD",
"~.	c #4C85AB",
"{.	c #4B85AA",
"].	c #4B84AA",
"^.	c #4F8BAE",
"/.	c #508CAF",
"(.	c #508BAF",
"_.	c #508BAE",
":.	c #508AAD",
"<.	c #477FA4",
"[.	c #5089AD",
"}.	c #4E88AD",
"|.	c #4D87AC",
"1.	c #4C86AB",
"2.	c #538FB2",
"3.	c #528EB1",
"4.	c #518DB1",
"5.	c #528DB1",
"6.	c #518CAF",
"7.	c #4E87AD",
"8.	c #4A83A8",
"9.	c #518DB0",
"0.	c #508CB0",
"a.	c #518BAF",
"b.	c #477DA0",
"c.	c #477CA0",
"d.	c #457A9E",
"e.	c #44789B",
"f.	c #43779B",
"g.	c #487EA1",
"h.	c #487FA2",
"i.	c #467C9F",
"j.	c #477C9F",
"k.	c #467C9E",
"l.	c #467A9D",
"m.	c #457A9D",
"n.	c #477CA1",
"o.	c #44799C",
"p.	c #43789B",
"q.	c #467B9E",
"r.	c #3F7193",
"s.	c #3F7194",
"t.	c #407195",
"u.	c #3F7094",
"v.	c #3E6F94",
"w.	c #3E6F93",
"x.	c #3F6F93",
"y.	c #3F7092",
"z.	c #3E6F91",
"A.	c #3D6E90",
"B.	c #3C6D90",
"C.	c #3C6C90",
"D.	c #3B6C91",
"E.	c #3B6B90",
"F.	c #3A6B8F",
"G.	c #3B6A8E",
"H.	c #3C6A8D",
"I.	c #3B6A8C",
"J.	c #3A698B",
"K.	c #3A698C",
"L.	c #3F7195",
"M.	c #407095",
"N.	c #3F6F94",
"O.	c #3F6F92",
"P.	c #3E6E91",
"Q.	c #3D6D90",
"R.	c #3B6C90",
"S.	c #3B6B8F",
"T.	c #3A6A8E",
"U.	c #3B698C",
"V.	c #3A688B",
"W.	c #3D6D8F",
"X.	c #3F7294",
"Y.	c #3F7296",
"Z.	c #407297",
"`.	c #3F7196",
" +	c #3F7096",
".+	c #3F7095",
"++	c #3E7093",
"@+	c #3B6D91",
"#+	c #3B6B8E",
"$+	c #3B6A8D",
"%+	c #3B6B8D",
"&+	c #3F7295",
"*+	c #407296",
"=+	c #407197",
"-+	c #3F7093",
";+	c #3E6F92",
">+	c #3D6E91",
",+	c #3D6F91",
"'+	c #407496",
")+	c #407497",
"!+	c #407398",
"~+	c #407196",
"{+	c #3D6F92",
"]+	c #3D6F93",
"^+	c #3C6E92",
"/+	c #3A6C90",
"(+	c #3B6C8F",
"_+	c #407498",
":+	c #3E7094",
"<+	c #3D6E93",
"[+	c #3C6D91",
"}+	c #407699",
"|+	c #417699",
"1+	c #42759A",
"2+	c #42749A",
"3+	c #41749A",
"4+	c #417399",
"5+	c #3E7095",
"6+	c #3A6D91",
"7+	c #41759A",
"8+	c #417398",
"9+	c #396B8F",
"0+	c #3E7295",
"a+	c #41779A",
"b+	c #42779B",
"c+	c #43779C",
"d+	c #44779C",
"e+	c #43769C",
"f+	c #43769B",
"g+	c #417397",
"h+	c #417296",
"i+	c #3C6D92",
"j+	c #3C6F93",
"k+	c #42759B",
"l+	c #417499",
"m+	c #417297",
"n+	c #3D6E92",
"o+	c #3F7397",
"p+	c #43789C",
"q+	c #44789D",
"r+	c #45789D",
"s+	c #44779D",
"t+	c #427498",
"u+	c #427499",
"v+	c #437599",
"w+	c #437499",
"x+	c #437498",
"y+	c #417599",
"z+	c #45799D",
"A+	c #42779C",
"B+	c #417498",
"C+	c #407397",
"D+	c #447A9D",
"E+	c #43789D",
"F+	c #41769B",
"G+	c #457B9E",
"H+	c #44789E",
"I+	c #43789E",
"J+	c #41769A",
"K+	c #477D9F",
"L+	c #477BA1",
"M+	c #467BA1",
"N+	c #437A9E",
"O+	c #467AA0",
"P+	c #43799E",
"Q+	c #497EA1",
"R+	c #497EA2",
"S+	c #487DA3",
"T+	c #457CA1",
"U+	c #407599",
"V+	c #487DA2",
"W+	c #497DA3",
"X+	c #487CA2",
"Y+	c #4A7FA5",
"Z+	c #447BA0",
"`+	c #42779A",
" @	c #4D82A6",
".@	c #4B81A5",
"+@	c #4A82A6",
"@@	c #4C84A7",
"#@	c #4D85A8",
"$@	c #4C85A9",
"%@	c #4A81A6",
"&@	c #467FA2",
"*@	c #4A82A5",
"=@	c #4F87AC",
"-@	c #4880A3",
";@	c #4F86AB",
">@	c #4E89AC",
",@	c #518CB0",
"'@	c #548FB3",
")@	c #508DB0",
"!@	c #4D87AD",
"~@	c #4A83A7",
"{@	c #518EB1",
"]@	c #5089AE",
"^@	c #43779A",
"/@	c #427699",
"(@	c #437799",
"_@	c #437699",
":@	c #427597",
"<@	c #417496",
"[@	c #427598",
"}@	c #417598",
"|@	c #427799",
"1@	c #437698",
"2@	c #427497",
"3@	c #427698",
"4@	c #45799C",
"5@	c #44789C",
"6@	c #43769A",
"7@	c #3C6B8E",
"8@	c #3B698B",
"9@	c #3B6D90",
"0@	c #3C6C8E",
"a@	c #3F7197",
"b@	c #3A6B8E",
"c@	c #407399",
"d@	c #3A6B90",
"e@	c #3C7093",
"f@	c #41779B",
"g@	c #3E7195",
"h@	c #42789B",
"i@	c #427599",
"j@	c #43759A",
"k@	c #42769C",
"l@	c #41759B",
"m@	c #467A9E",
"n@	c #45799F",
"o@	c #3F7297",
"p@	c #457AA0",
"q@	c #407499",
"r@	c #487DA0",
"s@	c #487CA0",
"  . + @ # # $ % & * = - ; > > , ' ) ! ' . ~ { $ # ] ^ * & ] / - ; > > , ' ( ! _   . + @ # # $ % & * = - ; > > , ' ) ! ' . ~ { $ # ] ^ * & ] / - ; > > , ' ( ! _ ",
": + + { < ] [ $ % % } | 1 2 2 1 3 4 4 5 6 + . 7 ] 8 ] ^ % < 9 | 1 2 2 0 3 4 4 5 : + + { < ] [ $ % % } | 1 2 2 1 3 4 4 5 6 + . 7 ] 8 ] ^ % < 9 | 1 2 2 0 3 4 4 5 ",
"a 4 5 b { 8 < < ] ^ c d e f f e g h | | a 5 = + i 8 < ] ^ { j k l f f m g h | n a 4 5 b { 8 < < ] ^ c d e f f e g h | | a 5 = + i 8 < ] ^ { j k l f f m g h | n ",
"o h p } q r i s < ] t u v w x v l m y o h | a / z [ { < A ~ B C v w x v l m y o o h p } q r i s < ] t u v w x v l m y o h | a / z [ { < A ~ B C v w x v l m y o ",
"m y o p D E E F G H C I J K K L M N l O m o | P / E Q F G 5 R x K K K w M S l T m y o p D E E F G H C I J K K L M N l O m o | P / E Q F G 5 R x K K K w M S l T ",
"l U d d t c D : + G x V V W W X Y Z N l O ` d t  .D 5 b G D ..X V W +.X Y M S l l U d d t c D : + G x V V W W X Y Z N l O ` d t  .D 5 b G D ..X V W +.X Y M S l ",
"v R @.#.$.%.c } b + &.*.W =.=.W -.K w N ;.>.@.#.,.'.c / 6 p ).*.!.=.=.W -.L w v v R @.#.$.%.c } b + &.*.W =.=.W -.K w N ;.>.@.#.,.'.c / 6 p ).*.!.=.=.W -.L w v ",
"K x ~.{.].$.B j } 5 ^./.(._.(./.(.:.-.K L x {.{.@.B B c <.C /./.(._.(.(.(.[.-.K K x ~.{.].$.B j } 5 ^./.(._.(./.(.:.-.K L x {.{.@.B B c <.C /./.(._.(.(.(.[.-.K ",
"W }.}.|.1.{.>.B j c 2.3.4././.4.5.6.=.[.+.}.7.|.1.>.8.t 9 L 2.3.9./.0.4.5.a.=.[.W }.}.|.1.{.>.B j c 2.3.4././.4.5.6.=.[.+.}.7.|.1.>.8.t 9 L 2.3.9./.0.4.5.a.=.[.",
"b.b.F c.s A d.# e.f.g.h.F b.i.i.j.k.l.m.b.F n.G < A d.o.p.m.g.g.b.i.i.i.j.q.m.q.b.b.F c.s A d.# e.f.g.h.F b.i.i.j.k.l.m.b.F n.G < A d.o.p.m.g.g.b.i.i.i.j.q.m.q.",
"r.s.t.u.v.w.x.y.z.A.B.C.D.E.F.G.H.I.J.K.r.L.M.N.v.w.x.O.P.Q.B.R.R.S.T.G.H.U.V.W.r.s.t.u.v.w.x.y.z.A.B.C.D.E.F.G.H.I.J.K.r.L.M.N.v.w.x.O.P.Q.B.R.R.S.T.G.H.U.V.W.",
"X.Y.Z.`.`. +.+u.++z.B.B.@+D.R.E.S.#+$+%+&+*+=+`. + +.+-+;+>+B.@+@+D.R.E.S.$+U.,+X.Y.Z.`.`. +.+u.++z.B.B.@+D.R.E.S.#+$+%+&+*+=+`. + +.+-+;+>+B.@+@+D.R.E.S.$+U.,+",
"'+)+!+!+!+!+!+~+++{+;+++v.]+^+^+@+/+F.(+)+_+!+!+!+!+Z..+{+{+w.:+w.<+^+[+R.F.F.++'+)+!+!+!+!+!+~+++{+;+++v.]+^+^+@+/+F.(+)+_+!+!+!+!+Z..+{+{+w.:+w.<+^+[+R.F.F.++",
"}+|+1+2+3+3+4+Z.5+:+u.L.L.u.:+]+^+@+/+6+|+7+1+3+3+3+8+L.:+++u.t.L.:+v.]+[+/+9+0+}+|+1+2+3+3+4+Z.5+:+u.L.L.u.:+]+^+@+/+6+|+7+1+3+3+3+8+L.:+++u.t.L.:+v.]+[+/+9+0+",
"a+b+c+d+e+f+2+8+g+g+*+h+h+t.L.:+w.]+i+j+b+c+c+d+e+k+l+8+g+h+*+m+*+L..+:+]+n+[+o+a+b+c+d+e+f+2+8+g+g+*+h+h+t.L.:+w.]+i+j+b+c+c+d+e+k+l+8+g+h+*+m+*+L..+:+]+n+[+o+",
"% p+q+r+r+s+d+2+8+t+u+v+t+g+*+L.L.u.:+L.p+q+r+r+r+s+f+l+8+t+w+x+8+*+~+L.L.u.:+y+% p+q+r+r+s+d+2+8+t+u+v+t+g+*+L.L.u.:+L.p+q+r+r+r+s+f+l+8+t+w+x+8+*+~+L.L.u.:+y+",
"$ ] m.m.m.z+q+A+7+7+* * 1+y+B+*+*+Y.L.C+$ D+m.m.m.z+E+* 7+F+A+& 7+y+C+*+*+L.*+* $ ] m.m.m.z+q+A+7+7+* * 1+y+B+*+*+Y.L.C+$ D+m.m.m.z+E+* 7+F+A+& 7+y+C+*+*+L.*+* ",
"@ < G+d.m.d.d.$ H+H+I+E+% A+* y+l+C+Y._+A G+d.m.m.d.d.$ H+I+E+p+% b+J+y+_+Y.C+c+@ < G+d.m.d.d.$ H+H+I+E+% A+* y+l+C+Y._+A G+d.m.m.d.d.$ H+I+E+p+% b+J+y+_+Y.C+c+",
"7 G c.K+K+j.c.n.L+M+A @ N+^ % b+J+_+o+y+7 G j.K+K+c.c.L+L+O+A @ P+p+A+b+y+o+C+p+7 G c.K+K+j.c.n.L+M+A @ N+^ % b+J+_+o+y+7 G j.K+K+c.c.L+L+O+A @ P+p+A+b+y+o+C+p+",
"+ F g.Q+Q+Q+R+S+' S+M+T+{ P+p+E+p+y+U+& + g.Q+Q+Q+Q+V+W+' X+7 T+@ ^ p+E+b+U+y+] + F g.Q+Q+Q+R+S+' S+M+T+{ P+p+E+p+y+U+& + g.Q+Q+Q+Q+V+W+' X+7 T+@ ^ p+E+b+U+y+] ",
"= 5 ; > > > , ' ! ) n.. T+] # # $ b+& p+/ - ; > > , ' ! Y+S+. ~ Z+# # ] ^ `+* 7 / 5 ; > > > , ' ! ) n.. T+] # # $ b+& p+/ - ; > > , ' ! Y+S+. ~ Z+# # ] ^ `+* 7 ",
"D | 1 2 2  @.@3 a 4 b ~ ~ { < 8 < ^ % ^ 9 .@g 2 2 1 3 a a 5 6 ~ . 7 [ [ ] ^ % + D | 1 2 2  @.@3 a 4 b ~ ~ { < 8 < ^ % ^ 9 .@g 2 2 1 3 a a 5 6 ~ . 7 [ [ ] ^ % + ",
" .+@@@#@N l m o h | n a 5 b { [ < A ] [ j ` l N #@m y o | n a } _ + [ [ < ] ] E  .+@@@#@N l m o h | n a 5 b { [ < A ] [ j ` l N #@m y o | n a } _ + [ [ < ] ] E ",
"t u $@w w v l O m y o %@p } + r { G < { d C v w x v l m y o h | a = z r G < A / t u $@w w v l O m y o %@p } + r { G < { d C v w x v l m y o h | a = z r G < A / ",
">.x J X -.K w N l l m o +@p D &@b F G + $@x K -.X L M S l O m o *@p / b b F s 9 >.x J X -.K w N l l m o +@p D &@b F G + $@x K -.X L M S l O m o *@p / b b F s 9 ",
"..V V W [.-.=@w N ;.O m d B %.c -@: + 6 V V -.[.+.=@;@M S l U ` d t  .D 5 6 G +@..V V W [.-.=@w N ;.O m d B %.c -@: + 6 V V -.[.+.=@;@M S l U ` d t  .D 5 6 G +@",
"&._.*.=.=.=.W =@L M v R @.#.$.%.c } b / !.^.*.=.=.W -.K w v R >.@.8.,.'.c / ~ C >@_.*.=.=.=.W =@L M v R @.#.$.%.c } b / !.^.*.=.=.W -.K w v R >.@.8.,.'.c / ~ C ",
"6.6./.^.^./.,@=.[.-.K J 1.~.].$.B j } j /.6.(.^.(.,@a.[.-.X ..1.~.I @.$.B c } K 6.6./.^.^./.,@=.[.-.K J 1.~.].$.B j } j /.6.(.^.(.,@a.[.-.X ..1.~.I @.$.B c } K ",
"'@2.3.)@0.4.3.9.(.=.W +.}.!@1.{.@.B j ~@2.2.4.0.)@{@5.6.=.]@+.}.7.|.~.>.8.t c =.'@2.3.)@0.4.3.9.(.=.W +.}.!@1.{.@.B j ~@2.2.4.0.)@{@5.6.=.]@+.}.7.|.~.>.8.t c =.",
"o.o.e.^@`+/@(@_@:@<@o.z+z+q+c+f.f.& [@}@o.o.p.^@|@_@(@1@2@3@4@z+q+5@c+f+6@/@}@^@o.o.e.^@`+/@(@_@:@<@o.z+z+q+c+f.f.& [@}@o.o.p.^@|@_@(@1@2@3@4@z+q+5@c+f+6@/@}@^@",
"B.B.D.R.S.S.7@H.8@V.r.s.t..+v.v.x.O.z.A.B.9@D.R.S.#+H.I.J.0@s.s.M..+v.v.-+O.P.A.B.B.D.R.S.S.7@H.8@V.r.s.t..+v.v.x.O.z.A.B.9@D.R.S.#+H.I.J.0@s.s.M..+v.v.-+O.P.A.",
">+[+[+@+R.R.R.S.$+I.X.*+Z.a@`.`.L.u.;+>+B.[+@+@+R.R.S.#+$+W.&+*+Z.a@`.`.L.u.;+>+>+[+[+@+R.R.R.S.$+I.X.*+Z.a@`.`.L.u.;+>+B.[+@+@+R.R.S.#+$+W.&+*+Z.a@`.`.L.u.;+>+",
";+++:+w.]+^+[+R.F.b@)+_+4+c@c@c@!+L.w.{+w.:+:+]+<+^+@+d@F.n+)+_+4+c@c@c@!+L.{+{+;+++:+w.]+^+[+R.F.b@)+_+4+c@c@c@!+L.w.{+w.:+:+]+<+^+@+d@F.n+)+_+4+c@c@c@!+L.{+{+",
"u.L.t.L.:+w.n+[+/+F.|+J+1+1+1+3+8+*+L.u.s.t.t.u.:+]+^+@+d@e@|+7+1+1+1+3+8+`.L.u.u.L.t.L.:+w.n+[+/+F.|+J+1+1+1+3+8+*+L.u.s.t.t.u.:+]+^+@+d@e@|+7+1+1+1+3+8+`.L.u.",
"h+h+m+*+L.u.:+]+n+i+f@A+d+d+e+f+2+8+8+g+h+g+*+t.L.:+w.]+^+g@h@c+d+d+e+f+l+8+8+g+h+h+m+*+L.u.:+]+n+i+f@A+d+d+e+f+2+8+8+g+h+g+*+t.L.:+w.]+^+g@h@c+d+d+e+f+l+8+8+g+",
"i@j@t+g+*+L.L.L..+u.% E+r+r+r+r+e+l+8+t+j@v+t+g+*+L.L.L.u._+^ q+r+r+r+r+f+l+8+u+i@j@t+g+*+L.L.L..+u.% E+r+r+r+r+e+l+8+t+j@v+t+g+*+L.L.L.u._+^ q+r+r+r+r+f+l+8+u+",
"k@b+& J+y+C+C+*+Y.*+$ ] m.m.m.z+q+k@l@F+A+* & y+_+C+C+Y.*+i@] D+m.m.m.z+q+k@l@F+k@b+& J+y+C+C+*+Y.*+$ ] m.m.m.z+q+k@l@F+A+* & y+_+C+C+Y.*+i@] D+m.m.m.z+q+k@l@F+",
"H+I+p+% b+J+y+!+Y.C+@ < q.q.q.q.m@n@$ H+H+E+p+% F+y+y+o@C+& < < q.q.q.q.A $ H+H+H+I+p+% b+J+y+!+Y.C+@ < q.q.q.q.m@n@$ H+H+E+p+% F+y+y+o@C+& < < q.q.q.q.A $ H+H+",
"O+p@@ ^ % A+b+q@o+_+< G c.r@r@r@c.n.n.M+p@@ ] E+A+b+J+_+C+b+{ G c.r@r@s@n.n.n.s O+p@@ ^ % A+b+q@o+_+< G c.r@r@r@c.n.n.M+p@@ ] E+A+b+J+_+C+b+{ G c.r@r@s@n.n.n.s ",
"n.M+T+] E+E+E+F+y+y++ Q Q+Q+Q+Q+R+W+' V+s T+Z+P+p+E+p+y+y+E+~ g.Q+Q+Q+Q+R+' ' V+n.M+T+] E+E+E+F+y+y++ Q Q+Q+Q+Q+R+W+' V+s T+Z+P+p+E+p+y+y+E+~ g.Q+Q+Q+Q+R+' ' V+",
"  . + @ # # $ % & * = - ; > > , ' ) ! ' . ~ { $ # ] ^ * & ] / - ; > > , ' ( ! _   . + @ # # $ % & * = - ; > > , ' ) ! ' . ~ { $ # ] ^ * & ] / - ; > > , ' ( ! _ ",
": + + { < ] [ $ % % } | 1 2 2 1 3 4 4 5 6 + . 7 ] 8 ] ^ % < 9 | 1 2 2 0 3 4 4 5 : + + { < ] [ $ % % } | 1 2 2 1 3 4 4 5 6 + . 7 ] 8 ] ^ % < 9 | 1 2 2 0 3 4 4 5 ",
"a 4 5 b { 8 < < ] ^ c d e f f e g h | | a 5 = + i 8 < ] ^ { j k l f f m g h | n a 4 5 b { 8 < < ] ^ c d e f f e g h | | a 5 = + i 8 < ] ^ { j k l f f m g h | n ",
"o h p } q r i s < ] t u v w x v l m y o h | a / z [ { < A ~ B C v w x v l m y o o h p } q r i s < ] t u v w x v l m y o h | a / z [ { < A ~ B C v w x v l m y o ",
"m y o p D E E F G H C I J K K L M N l O m o | P / E Q F G 5 R x K K K w M S l T m y o p D E E F G H C I J K K L M N l O m o | P / E Q F G 5 R x K K K w M S l T ",
"l U d d t c D : + G x V V W W X Y Z N l O ` d t  .D 5 b G D ..X V W +.X Y M S l l U d d t c D : + G x V V W W X Y Z N l O ` d t  .D 5 b G D ..X V W +.X Y M S l ",
"v R @.#.$.%.c } b + &.*.W =.=.W -.K w N ;.>.@.#.,.'.c / 6 p ).*.!.=.=.W -.L w v v R @.#.$.%.c } b + &.*.W =.=.W -.K w N ;.>.@.#.,.'.c / 6 p ).*.!.=.=.W -.L w v ",
"K x ~.{.].$.B j } 5 ^./.(._.(./.(.:.-.K L x {.{.@.B B c <.C /./.(._.(.(.(.[.-.K K x ~.{.].$.B j } 5 ^./.(._.(./.(.:.-.K L x {.{.@.B B c <.C /./.(._.(.(.(.[.-.K ",
"W }.}.|.1.{.>.B j c 2.3.4././.4.5.6.=.[.+.}.7.|.1.>.8.t 9 L 2.3.9./.0.4.5.a.=.[.W }.}.|.1.{.>.B j c 2.3.4././.4.5.6.=.[.+.}.7.|.1.>.8.t 9 L 2.3.9./.0.4.5.a.=.[.",
"b.b.F c.s A d.# e.f.g.h.F b.i.i.j.k.l.m.b.F n.G < A d.o.p.m.g.g.b.i.i.i.j.q.m.q.b.b.F c.s A d.# e.f.g.h.F b.i.i.j.k.l.m.b.F n.G < A d.o.p.m.g.g.b.i.i.i.j.q.m.q.",
"r.s.t.u.v.w.x.y.z.A.B.C.D.E.F.G.H.I.J.K.r.L.M.N.v.w.x.O.P.Q.B.R.R.S.T.G.H.U.V.W.r.s.t.u.v.w.x.y.z.A.B.C.D.E.F.G.H.I.J.K.r.L.M.N.v.w.x.O.P.Q.B.R.R.S.T.G.H.U.V.W.",
"X.Y.Z.`.`. +.+u.++z.B.B.@+D.R.E.S.#+$+%+&+*+=+`. + +.+-+;+>+B.@+@+D.R.E.S.$+U.,+X.Y.Z.`.`. +.+u.++z.B.B.@+D.R.E.S.#+$+%+&+*+=+`. + +.+-+;+>+B.@+@+D.R.E.S.$+U.,+",
"'+)+!+!+!+!+!+~+++{+;+++v.]+^+^+@+/+F.(+)+_+!+!+!+!+Z..+{+{+w.:+w.<+^+[+R.F.F.++'+)+!+!+!+!+!+~+++{+;+++v.]+^+^+@+/+F.(+)+_+!+!+!+!+Z..+{+{+w.:+w.<+^+[+R.F.F.++",
"}+|+1+2+3+3+4+Z.5+:+u.L.L.u.:+]+^+@+/+6+|+7+1+3+3+3+8+L.:+++u.t.L.:+v.]+[+/+9+0+}+|+1+2+3+3+4+Z.5+:+u.L.L.u.:+]+^+@+/+6+|+7+1+3+3+3+8+L.:+++u.t.L.:+v.]+[+/+9+0+",
"a+b+c+d+e+f+2+8+g+g+*+h+h+t.L.:+w.]+i+j+b+c+c+d+e+k+l+8+g+h+*+m+*+L..+:+]+n+[+o+a+b+c+d+e+f+2+8+g+g+*+h+h+t.L.:+w.]+i+j+b+c+c+d+e+k+l+8+g+h+*+m+*+L..+:+]+n+[+o+",
"% p+q+r+r+s+d+2+8+t+u+v+t+g+*+L.L.u.:+L.p+q+r+r+r+s+f+l+8+t+w+x+8+*+~+L.L.u.:+y+% p+q+r+r+s+d+2+8+t+u+v+t+g+*+L.L.u.:+L.p+q+r+r+r+s+f+l+8+t+w+x+8+*+~+L.L.u.:+y+",
"$ ] m.m.m.z+q+A+7+7+* * 1+y+B+*+*+Y.L.C+$ D+m.m.m.z+E+* 7+F+A+& 7+y+C+*+*+L.*+* $ ] m.m.m.z+q+A+7+7+* * 1+y+B+*+*+Y.L.C+$ D+m.m.m.z+E+* 7+F+A+& 7+y+C+*+*+L.*+* ",
"@ < G+d.m.d.d.$ H+H+I+E+% A+* y+l+C+Y._+A G+d.m.m.d.d.$ H+I+E+p+% b+J+y+_+Y.C+c+@ < G+d.m.d.d.$ H+H+I+E+% A+* y+l+C+Y._+A G+d.m.m.d.d.$ H+I+E+p+% b+J+y+_+Y.C+c+",
"7 G c.K+K+j.c.n.L+M+A @ N+^ % b+J+_+o+y+7 G j.K+K+c.c.L+L+O+A @ P+p+A+b+y+o+C+p+7 G c.K+K+j.c.n.L+M+A @ N+^ % b+J+_+o+y+7 G j.K+K+c.c.L+L+O+A @ P+p+A+b+y+o+C+p+",
"+ F g.Q+Q+Q+R+S+' S+M+T+{ P+p+E+p+y+U+& + g.Q+Q+Q+Q+V+W+' X+7 T+@ ^ p+E+b+U+y+] + F g.Q+Q+Q+R+S+' S+M+T+{ P+p+E+p+y+U+& + g.Q+Q+Q+Q+V+W+' X+7 T+@ ^ p+E+b+U+y+] ",
"= 5 ; > > > , ' ! ) n.. T+] # # $ b+& p+/ - ; > > , ' ! Y+S+. ~ Z+# # ] ^ `+* 7 / 5 ; > > > , ' ! ) n.. T+] # # $ b+& p+/ - ; > > , ' ! Y+S+. ~ Z+# # ] ^ `+* 7 ",
"D | 1 2 2  @.@3 a 4 b ~ ~ { < 8 < ^ % ^ 9 .@g 2 2 1 3 a a 5 6 ~ . 7 [ [ ] ^ % + D | 1 2 2  @.@3 a 4 b ~ ~ { < 8 < ^ % ^ 9 .@g 2 2 1 3 a a 5 6 ~ . 7 [ [ ] ^ % + ",
" .+@@@#@N l m o h | n a 5 b { [ < A ] [ j ` l N #@m y o | n a } _ + [ [ < ] ] E  .+@@@#@N l m o h | n a 5 b { [ < A ] [ j ` l N #@m y o | n a } _ + [ [ < ] ] E ",
"t u $@w w v l O m y o %@p } + r { G < { d C v w x v l m y o h | a = z r G < A / t u $@w w v l O m y o %@p } + r { G < { d C v w x v l m y o h | a = z r G < A / ",
">.x J X -.K w N l l m o +@p D &@b F G + $@x K -.X L M S l O m o *@p / b b F s 9 >.x J X -.K w N l l m o +@p D &@b F G + $@x K -.X L M S l O m o *@p / b b F s 9 ",
"..V V W [.-.=@w N ;.O m d B %.c -@: + 6 V V -.[.+.=@;@M S l U ` d t  .D 5 6 G +@..V V W [.-.=@w N ;.O m d B %.c -@: + 6 V V -.[.+.=@;@M S l U ` d t  .D 5 6 G +@",
"&._.*.=.=.=.W =@L M v R @.#.$.%.c } b / !.^.*.=.=.W -.K w v R >.@.8.,.'.c / ~ C >@_.*.=.=.=.W =@L M v R @.#.$.%.c } b / !.^.*.=.=.W -.K w v R >.@.8.,.'.c / ~ C ",
"6.6./.^.^./.,@=.[.-.K J 1.~.].$.B j } j /.6.(.^.(.,@a.[.-.X ..1.~.I @.$.B c } K 6.6./.^.^./.,@=.[.-.K J 1.~.].$.B j } j /.6.(.^.(.,@a.[.-.X ..1.~.I @.$.B c } K ",
"'@2.3.)@0.4.3.9.(.=.W +.}.!@1.{.@.B j ~@2.2.4.0.)@{@5.6.=.]@+.}.7.|.~.>.8.t c =.'@2.3.)@0.4.3.9.(.=.W +.}.!@1.{.@.B j ~@2.2.4.0.)@{@5.6.=.]@+.}.7.|.~.>.8.t c =.",
"o.o.e.^@`+/@(@_@:@<@o.z+z+q+c+f.f.& [@}@o.o.p.^@|@_@(@1@2@3@4@z+q+5@c+f+6@/@}@^@o.o.e.^@`+/@(@_@:@<@o.z+z+q+c+f.f.& [@}@o.o.p.^@|@_@(@1@2@3@4@z+q+5@c+f+6@/@}@^@",
"B.B.D.R.S.S.7@H.8@V.r.s.t..+v.v.x.O.z.A.B.9@D.R.S.#+H.I.J.0@s.s.M..+v.v.-+O.P.A.B.B.D.R.S.S.7@H.8@V.r.s.t..+v.v.x.O.z.A.B.9@D.R.S.#+H.I.J.0@s.s.M..+v.v.-+O.P.A.",
">+[+[+@+R.R.R.S.$+I.X.*+Z.a@`.`.L.u.;+>+B.[+@+@+R.R.S.#+$+W.&+*+Z.a@`.`.L.u.;+>+>+[+[+@+R.R.R.S.$+I.X.*+Z.a@`.`.L.u.;+>+B.[+@+@+R.R.S.#+$+W.&+*+Z.a@`.`.L.u.;+>+",
";+++:+w.]+^+[+R.F.b@)+_+4+c@c@c@!+L.w.{+w.:+:+]+<+^+@+d@F.n+)+_+4+c@c@c@!+L.{+{+;+++:+w.]+^+[+R.F.b@)+_+4+c@c@c@!+L.w.{+w.:+:+]+<+^+@+d@F.n+)+_+4+c@c@c@!+L.{+{+",
"u.L.t.L.:+w.n+[+/+F.|+J+1+1+1+3+8+*+L.u.s.t.t.u.:+]+^+@+d@e@|+7+1+1+1+3+8+`.L.u.u.L.t.L.:+w.n+[+/+F.|+J+1+1+1+3+8+*+L.u.s.t.t.u.:+]+^+@+d@e@|+7+1+1+1+3+8+`.L.u.",
"h+h+m+*+L.u.:+]+n+i+f@A+d+d+e+f+2+8+8+g+h+g+*+t.L.:+w.]+^+g@h@c+d+d+e+f+l+8+8+g+h+h+m+*+L.u.:+]+n+i+f@A+d+d+e+f+2+8+8+g+h+g+*+t.L.:+w.]+^+g@h@c+d+d+e+f+l+8+8+g+",
"i@j@t+g+*+L.L.L..+u.% E+r+r+r+r+e+l+8+t+j@v+t+g+*+L.L.L.u._+^ q+r+r+r+r+f+l+8+u+i@j@t+g+*+L.L.L..+u.% E+r+r+r+r+e+l+8+t+j@v+t+g+*+L.L.L.u._+^ q+r+r+r+r+f+l+8+u+",
"k@b+& J+y+C+C+*+Y.*+$ ] m.m.m.z+q+k@l@F+A+* & y+_+C+C+Y.*+i@] D+m.m.m.z+q+k@l@F+k@b+& J+y+C+C+*+Y.*+$ ] m.m.m.z+q+k@l@F+A+* & y+_+C+C+Y.*+i@] D+m.m.m.z+q+k@l@F+",
"H+I+p+% b+J+y+!+Y.C+@ < q.q.q.q.m@n@$ H+H+E+p+% F+y+y+o@C+& < < q.q.q.q.A $ H+H+H+I+p+% b+J+y+!+Y.C+@ < q.q.q.q.m@n@$ H+H+E+p+% F+y+y+o@C+& < < q.q.q.q.A $ H+H+",
"O+p@@ ^ % A+b+q@o+_+< G c.r@r@r@c.n.n.M+p@@ ] E+A+b+J+_+C+b+{ G c.r@r@s@n.n.n.s O+p@@ ^ % A+b+q@o+_+< G c.r@r@r@c.n.n.M+p@@ ] E+A+b+J+_+C+b+{ G c.r@r@s@n.n.n.s ",
"n.M+T+] E+E+E+F+y+y++ Q Q+Q+Q+Q+R+W+' V+s T+Z+P+p+E+p+y+y+E+~ g.Q+Q+Q+Q+R+' ' V+n.M+T+] E+E+E+F+y+y++ Q Q+Q+Q+Q+R+W+' V+s T+Z+P+p+E+p+y+y+E+~ g.Q+Q+Q+Q+R+' ' V+"};
